<svg width="24" height="24" viewBox="0 0 24 24" fill="none" xmlns="http://www.w3.org/2000/svg">
<g clip-path="url(#clip0_1_2)">
<path d="M11.1175 3.71842C10.7725 3.44967 10.4482 3.10775 10.4309 2.67078C10.3924 1.69561 11.1195 1.0432 11.6644 0.693409C12.0232 0.462979 12.4678 0.439609 12.8628 0.60054C15.3308 1.60624 18.8606 4.71386 20.9606 9.2038C22.3618 12.1996 22.2429 14.7795 21.942 16.3254C21.7396 17.3653 21.0885 18.2319 20.2416 18.8685C18.9726 19.8223 16.8388 21.2537 14.3179 22.2528C13.2867 22.6615 12.1785 22.8944 11.0748 22.7839C8.82287 22.5587 6.77602 21.4684 5.25509 19.2356C4.70684 18.4309 4.74859 17.3567 5.46761 16.7C5.60715 16.5726 5.76147 16.444 5.93074 16.3195C6.54443 15.8678 7.34605 16.2207 7.88257 16.7617C9.09898 17.9883 10.9196 18.2483 12.0581 17.1873C12.2785 16.947 12.4646 16.6567 12.6168 16.3698C13.0265 15.5972 12.8824 14.6196 12.1822 14.0958C10.9099 13.1439 9.32078 13.2398 7.93067 14.4417C7.30434 14.9832 6.46563 15.3022 5.73999 14.9033C5.58491 14.818 5.42236 14.722 5.25659 14.6148C4.31363 14.0045 4.10673 12.7299 4.79448 11.8418C6.07547 10.1877 7.95038 9.35873 10.0411 9.16696C8.74871 8.34298 7.35569 7.69679 5.93703 7.37518C5.36577 7.24567 4.79832 6.93947 4.657 6.37105C4.45152 5.54468 4.71152 4.82367 4.98532 4.34386C5.23032 3.91461 5.71274 3.70691 6.20662 3.72639C8.7619 3.82718 11.3705 4.84033 12.9585 5.61153C12.38 4.85906 11.7454 4.20749 11.1175 3.71842Z" fill="#8FBFFA"/>
<path d="M11.1176 3.71838C10.7726 3.44963 10.4483 3.10771 10.4311 2.67072C10.3925 1.69554 11.1197 1.04314 11.6645 0.693348C12.0233 0.462918 12.4679 0.439547 12.8628 0.600499C15.3309 1.60618 18.8607 4.71383 20.9606 9.20376C22.3618 12.1996 22.243 14.7794 21.9421 16.3254C21.7397 17.3652 21.0886 18.2319 20.2417 18.8684C18.9726 19.8223 16.8389 21.2536 14.3181 22.2528C13.2868 22.6614 12.1787 22.8943 11.0749 22.7839C8.82295 22.5586 6.77614 21.4683 5.25517 19.2356C4.70696 18.4308 4.74867 17.3566 5.46769 16.7C5.60723 16.5725 5.76159 16.444 5.93082 16.3194C6.54451 15.8678 7.34613 16.2207 7.88269 16.7617C9.09906 17.9883 10.9198 18.2483 12.0582 17.1873C12.2786 16.9469 12.4647 16.6567 12.6169 16.3697C13.0266 15.5972 12.8824 14.6195 12.1822 14.0957C10.91 13.1439 9.32092 13.2398 7.93079 14.4416C7.30442 14.9832 6.46575 15.3021 5.74012 14.9032C5.58499 14.818 5.42245 14.722 5.25667 14.6147C4.31371 14.0044 4.10681 12.7298 4.79456 11.8418C6.07555 10.1876 7.95052 9.35871 10.0412 9.16692C8.74879 8.34294 7.35581 7.69673 5.93712 7.37514C5.36592 7.24565 4.7984 6.93943 4.65708 6.37101C4.45163 5.54468 4.71164 4.82361 4.98544 4.3438C5.23045 3.91454 5.71282 3.70687 6.2067 3.72635C8.76198 3.82714 11.3706 4.84027 12.9585 5.61149C12.3802 4.859 11.7454 4.20741 11.1176 3.71838Z" stroke="#2859C5" stroke-width="1.5" stroke-linecap="round" stroke-linejoin="round"/>
<path d="M15.6495 8.65821C14.9828 7.49155 14.4495 5.55821 17.6495 7.15821" stroke="#2859C5"/>
<path d="M12.1437 11.5503C11.8104 10.217 11.8438 7.95031 14.6437 9.55031" stroke="#2859C5"/>
<path d="M17.8662 11.5C17.8662 12.0523 17.4185 12.5 16.8662 12.5C16.3139 12.5 15.5 12.5523 15.5 12C15.5 11.4477 16.3492 10.7585 16.8662 10.5C17.8662 10 17.8662 10.9477 17.8662 11.5Z" fill="#2859C5"/>
</g>
<defs>
<clipPath id="clip0_1_2">
<rect width="24" height="24" fill="white"/>
</clipPath>
</defs>
</svg>
